<mxfile host="app.diagrams.net" modified="2024-06-15T13:17:00.453Z" agent="Mozilla/5.0 (Windows NT 10.0; Win64; x64) AppleWebKit/537.36 (KHTML, like Gecko) Chrome/126.0.0.0 Safari/537.36" etag="YaYpQJ0CMWZ5aCSIEW7d" version="24.5.3" type="github" pages="4">
  <diagram name="Page-1" id="zcsIJ5oPYtfFFtMieLTu">
    <mxGraphModel dx="1222" dy="636" grid="1" gridSize="10" guides="1" tooltips="1" connect="1" arrows="1" fold="1" page="1" pageScale="1" pageWidth="850" pageHeight="1100" math="0" shadow="0">
      <root>
        <mxCell id="0" />
        <mxCell id="1" parent="0" />
        <mxCell id="AB_d_BDQOn1JZrrvu_UV-1" value="React App" style="shape=umlLifeline;perimeter=lifelinePerimeter;whiteSpace=wrap;container=1;dropTarget=0;collapsible=0;recursiveResize=0;outlineConnect=0;portConstraint=eastwest;newEdgeStyle={&quot;edgeStyle&quot;:&quot;elbowEdgeStyle&quot;,&quot;elbow&quot;:&quot;vertical&quot;,&quot;curved&quot;:0,&quot;rounded&quot;:0};size=65;" vertex="1" parent="1">
          <mxGeometry x="20" y="20" width="150" height="888" as="geometry" />
        </mxCell>
        <mxCell id="AB_d_BDQOn1JZrrvu_UV-2" value="AWS Cognito" style="shape=umlLifeline;perimeter=lifelinePerimeter;whiteSpace=wrap;container=1;dropTarget=0;collapsible=0;recursiveResize=0;outlineConnect=0;portConstraint=eastwest;newEdgeStyle={&quot;edgeStyle&quot;:&quot;elbowEdgeStyle&quot;,&quot;elbow&quot;:&quot;vertical&quot;,&quot;curved&quot;:0,&quot;rounded&quot;:0};size=65;" vertex="1" parent="1">
          <mxGeometry x="358" y="20" width="150" height="888" as="geometry" />
        </mxCell>
        <mxCell id="AB_d_BDQOn1JZrrvu_UV-3" value="API Gateway" style="shape=umlLifeline;perimeter=lifelinePerimeter;whiteSpace=wrap;container=1;dropTarget=0;collapsible=0;recursiveResize=0;outlineConnect=0;portConstraint=eastwest;newEdgeStyle={&quot;edgeStyle&quot;:&quot;elbowEdgeStyle&quot;,&quot;elbow&quot;:&quot;vertical&quot;,&quot;curved&quot;:0,&quot;rounded&quot;:0};size=65;" vertex="1" parent="1">
          <mxGeometry x="558" y="20" width="150" height="888" as="geometry" />
        </mxCell>
        <mxCell id="AB_d_BDQOn1JZrrvu_UV-4" value="Lambda Authorizer" style="shape=umlLifeline;perimeter=lifelinePerimeter;whiteSpace=wrap;container=1;dropTarget=0;collapsible=0;recursiveResize=0;outlineConnect=0;portConstraint=eastwest;newEdgeStyle={&quot;edgeStyle&quot;:&quot;elbowEdgeStyle&quot;,&quot;elbow&quot;:&quot;vertical&quot;,&quot;curved&quot;:0,&quot;rounded&quot;:0};size=65;" vertex="1" parent="1">
          <mxGeometry x="834" y="20" width="155" height="888" as="geometry" />
        </mxCell>
        <mxCell id="AB_d_BDQOn1JZrrvu_UV-5" value="Spring Boot Backend" style="shape=umlLifeline;perimeter=lifelinePerimeter;whiteSpace=wrap;container=1;dropTarget=0;collapsible=0;recursiveResize=0;outlineConnect=0;portConstraint=eastwest;newEdgeStyle={&quot;edgeStyle&quot;:&quot;elbowEdgeStyle&quot;,&quot;elbow&quot;:&quot;vertical&quot;,&quot;curved&quot;:0,&quot;rounded&quot;:0};size=65;" vertex="1" parent="1">
          <mxGeometry x="1039" y="20" width="167" height="888" as="geometry" />
        </mxCell>
        <mxCell id="AB_d_BDQOn1JZrrvu_UV-6" value="DynamoDB" style="shape=umlLifeline;perimeter=lifelinePerimeter;whiteSpace=wrap;container=1;dropTarget=0;collapsible=0;recursiveResize=0;outlineConnect=0;portConstraint=eastwest;newEdgeStyle={&quot;edgeStyle&quot;:&quot;elbowEdgeStyle&quot;,&quot;elbow&quot;:&quot;vertical&quot;,&quot;curved&quot;:0,&quot;rounded&quot;:0};size=65;" vertex="1" parent="1">
          <mxGeometry x="1273" y="20" width="150" height="888" as="geometry" />
        </mxCell>
        <mxCell id="AB_d_BDQOn1JZrrvu_UV-7" value="Sign In" style="verticalAlign=bottom;endArrow=block;edgeStyle=elbowEdgeStyle;elbow=vertical;curved=0;rounded=0;" edge="1" parent="1" source="AB_d_BDQOn1JZrrvu_UV-1" target="AB_d_BDQOn1JZrrvu_UV-2">
          <mxGeometry relative="1" as="geometry">
            <Array as="points">
              <mxPoint x="273" y="127" />
            </Array>
          </mxGeometry>
        </mxCell>
        <mxCell id="AB_d_BDQOn1JZrrvu_UV-8" value="Authorization Code" style="verticalAlign=bottom;endArrow=block;edgeStyle=elbowEdgeStyle;elbow=vertical;curved=0;rounded=0;" edge="1" parent="1" source="AB_d_BDQOn1JZrrvu_UV-2" target="AB_d_BDQOn1JZrrvu_UV-1">
          <mxGeometry relative="1" as="geometry">
            <Array as="points">
              <mxPoint x="276" y="179" />
            </Array>
          </mxGeometry>
        </mxCell>
        <mxCell id="AB_d_BDQOn1JZrrvu_UV-9" value="Exchange Auth Code for JWT Tokens" style="verticalAlign=bottom;endArrow=block;edgeStyle=elbowEdgeStyle;elbow=vertical;curved=0;rounded=0;" edge="1" parent="1" source="AB_d_BDQOn1JZrrvu_UV-1" target="AB_d_BDQOn1JZrrvu_UV-2">
          <mxGeometry relative="1" as="geometry">
            <Array as="points">
              <mxPoint x="273" y="231" />
            </Array>
          </mxGeometry>
        </mxCell>
        <mxCell id="AB_d_BDQOn1JZrrvu_UV-10" value="ID Token, Access Token, Refresh Token" style="verticalAlign=bottom;endArrow=block;edgeStyle=elbowEdgeStyle;elbow=vertical;curved=0;rounded=0;" edge="1" parent="1" source="AB_d_BDQOn1JZrrvu_UV-2" target="AB_d_BDQOn1JZrrvu_UV-1">
          <mxGeometry relative="1" as="geometry">
            <Array as="points">
              <mxPoint x="276" y="283" />
            </Array>
          </mxGeometry>
        </mxCell>
        <mxCell id="AB_d_BDQOn1JZrrvu_UV-11" value="API Request (JWT Token)" style="verticalAlign=bottom;endArrow=block;edgeStyle=elbowEdgeStyle;elbow=vertical;curved=0;rounded=0;" edge="1" parent="1" source="AB_d_BDQOn1JZrrvu_UV-1" target="AB_d_BDQOn1JZrrvu_UV-3">
          <mxGeometry relative="1" as="geometry">
            <Array as="points">
              <mxPoint x="373" y="335" />
            </Array>
          </mxGeometry>
        </mxCell>
        <mxCell id="AB_d_BDQOn1JZrrvu_UV-12" value="Forward Request (JWT Token)" style="verticalAlign=bottom;endArrow=block;edgeStyle=elbowEdgeStyle;elbow=vertical;curved=0;rounded=0;" edge="1" parent="1" source="AB_d_BDQOn1JZrrvu_UV-3" target="AB_d_BDQOn1JZrrvu_UV-4">
          <mxGeometry relative="1" as="geometry">
            <Array as="points">
              <mxPoint x="781" y="387" />
            </Array>
          </mxGeometry>
        </mxCell>
        <mxCell id="AB_d_BDQOn1JZrrvu_UV-13" value="Validate Token" style="verticalAlign=bottom;endArrow=block;edgeStyle=elbowEdgeStyle;elbow=vertical;curved=0;rounded=0;" edge="1" parent="1" source="AB_d_BDQOn1JZrrvu_UV-4" target="AB_d_BDQOn1JZrrvu_UV-2">
          <mxGeometry relative="1" as="geometry">
            <Array as="points">
              <mxPoint x="684" y="439" />
            </Array>
          </mxGeometry>
        </mxCell>
        <mxCell id="AB_d_BDQOn1JZrrvu_UV-14" value="Token Valid/Invalid" style="verticalAlign=bottom;endArrow=block;edgeStyle=elbowEdgeStyle;elbow=vertical;curved=0;rounded=0;dashed=1;dashPattern=2 3;" edge="1" parent="1" source="AB_d_BDQOn1JZrrvu_UV-2" target="AB_d_BDQOn1JZrrvu_UV-4">
          <mxGeometry relative="1" as="geometry">
            <Array as="points">
              <mxPoint x="681" y="491" />
            </Array>
          </mxGeometry>
        </mxCell>
        <mxCell id="AB_d_BDQOn1JZrrvu_UV-15" value="Allow/Deny" style="verticalAlign=bottom;endArrow=block;edgeStyle=elbowEdgeStyle;elbow=vertical;curved=0;rounded=0;" edge="1" parent="1" source="AB_d_BDQOn1JZrrvu_UV-4" target="AB_d_BDQOn1JZrrvu_UV-3">
          <mxGeometry relative="1" as="geometry">
            <Array as="points">
              <mxPoint x="784" y="543" />
            </Array>
          </mxGeometry>
        </mxCell>
        <mxCell id="AB_d_BDQOn1JZrrvu_UV-16" value="Forward Request (If Allowed)" style="verticalAlign=bottom;endArrow=block;edgeStyle=elbowEdgeStyle;elbow=vertical;curved=0;rounded=0;" edge="1" parent="1" source="AB_d_BDQOn1JZrrvu_UV-3" target="AB_d_BDQOn1JZrrvu_UV-5">
          <mxGeometry relative="1" as="geometry">
            <Array as="points">
              <mxPoint x="886" y="595" />
            </Array>
          </mxGeometry>
        </mxCell>
        <mxCell id="AB_d_BDQOn1JZrrvu_UV-17" value="Perform DB Operation" style="verticalAlign=bottom;endArrow=block;edgeStyle=elbowEdgeStyle;elbow=vertical;curved=0;rounded=0;" edge="1" parent="1" source="AB_d_BDQOn1JZrrvu_UV-5" target="AB_d_BDQOn1JZrrvu_UV-6">
          <mxGeometry relative="1" as="geometry">
            <Array as="points">
              <mxPoint x="1244" y="647" />
            </Array>
          </mxGeometry>
        </mxCell>
        <mxCell id="AB_d_BDQOn1JZrrvu_UV-18" value="Return Data" style="verticalAlign=bottom;endArrow=block;edgeStyle=elbowEdgeStyle;elbow=vertical;curved=0;rounded=0;" edge="1" parent="1" source="AB_d_BDQOn1JZrrvu_UV-6" target="AB_d_BDQOn1JZrrvu_UV-5">
          <mxGeometry relative="1" as="geometry">
            <Array as="points">
              <mxPoint x="1247" y="699" />
            </Array>
          </mxGeometry>
        </mxCell>
        <mxCell id="AB_d_BDQOn1JZrrvu_UV-19" value="Return Response" style="verticalAlign=bottom;endArrow=block;edgeStyle=elbowEdgeStyle;elbow=vertical;curved=0;rounded=0;" edge="1" parent="1" source="AB_d_BDQOn1JZrrvu_UV-5" target="AB_d_BDQOn1JZrrvu_UV-3">
          <mxGeometry relative="1" as="geometry">
            <Array as="points">
              <mxPoint x="889" y="751" />
            </Array>
          </mxGeometry>
        </mxCell>
        <mxCell id="AB_d_BDQOn1JZrrvu_UV-20" value="Return Response" style="verticalAlign=bottom;endArrow=block;edgeStyle=elbowEdgeStyle;elbow=vertical;curved=0;rounded=0;" edge="1" parent="1" source="AB_d_BDQOn1JZrrvu_UV-3" target="AB_d_BDQOn1JZrrvu_UV-1">
          <mxGeometry relative="1" as="geometry">
            <Array as="points">
              <mxPoint x="376" y="803" />
            </Array>
          </mxGeometry>
        </mxCell>
      </root>
    </mxGraphModel>
  </diagram>
  <diagram id="MhaqYAlzycJpKwpS_oR9" name="Page-2">
    <mxGraphModel grid="1" page="1" gridSize="10" guides="1" tooltips="1" connect="1" arrows="1" fold="1" pageScale="1" pageWidth="850" pageHeight="1100" math="0" shadow="0">
      <root>
        <mxCell id="0" />
        <mxCell id="1" parent="0" />
      </root>
    </mxGraphModel>
  </diagram>
  <diagram id="vzH3tsLkldthPXbdkJJp" name="Page-3">
    <mxGraphModel grid="1" page="1" gridSize="10" guides="1" tooltips="1" connect="1" arrows="1" fold="1" pageScale="1" pageWidth="850" pageHeight="1100" math="0" shadow="0">
      <root>
        <mxCell id="0" />
        <mxCell id="1" parent="0" />
      </root>
    </mxGraphModel>
  </diagram>
  <diagram id="5rmsTQA-QZHtwkaJWRlV" name="Page-4">
    <mxGraphModel dx="1222" dy="636" grid="1" gridSize="10" guides="1" tooltips="1" connect="1" arrows="1" fold="1" page="1" pageScale="1" pageWidth="850" pageHeight="1100" math="0" shadow="0">
      <root>
        <mxCell id="0" />
        <mxCell id="1" parent="0" />
        <mxCell id="U2W_PXW87W6aidbfWF0g-1" value="Monitoring" style="whiteSpace=wrap;strokeWidth=2;verticalAlign=top;" vertex="1" parent="1">
          <mxGeometry x="2349" y="815" width="170" height="134" as="geometry" />
        </mxCell>
        <mxCell id="U2W_PXW87W6aidbfWF0g-2" value="CloudWatch" style="whiteSpace=wrap;strokeWidth=2;" vertex="1" parent="1">
          <mxGeometry x="2384" y="865" width="100" height="34" as="geometry" />
        </mxCell>
        <mxCell id="U2W_PXW87W6aidbfWF0g-3" value="AWS" style="whiteSpace=wrap;strokeWidth=2;verticalAlign=top;" vertex="1" parent="1">
          <mxGeometry x="20" y="238" width="2309" height="711" as="geometry" />
        </mxCell>
        <mxCell id="U2W_PXW87W6aidbfWF0g-4" value="Cognito" style="whiteSpace=wrap;strokeWidth=2;" vertex="1" parent="1">
          <mxGeometry x="1457" y="263" width="70" height="34" as="geometry" />
        </mxCell>
        <mxCell id="U2W_PXW87W6aidbfWF0g-5" value="JWT Token" style="whiteSpace=wrap;strokeWidth=2;" vertex="1" parent="1">
          <mxGeometry x="1447" y="346" width="91" height="34" as="geometry" />
        </mxCell>
        <mxCell id="U2W_PXW87W6aidbfWF0g-6" value="Microservices on ECS/EKS" style="whiteSpace=wrap;strokeWidth=2;verticalAlign=top;" vertex="1" parent="1">
          <mxGeometry x="143" y="430" width="1732" height="335" as="geometry" />
        </mxCell>
        <mxCell id="U2W_PXW87W6aidbfWF0g-7" value="Storage" style="whiteSpace=wrap;strokeWidth=2;verticalAlign=top;" vertex="1" parent="1">
          <mxGeometry x="40" y="840" width="1401" height="84" as="geometry" />
        </mxCell>
        <mxCell id="U2W_PXW87W6aidbfWF0g-8" value="Low Cash Condition" style="whiteSpace=wrap;strokeWidth=2;" vertex="1" parent="1">
          <mxGeometry x="1911" y="623" width="155" height="34" as="geometry" />
        </mxCell>
        <mxCell id="U2W_PXW87W6aidbfWF0g-9" value="Low Balance Condition" style="whiteSpace=wrap;strokeWidth=2;" vertex="1" parent="1">
          <mxGeometry x="2116" y="623" width="178" height="34" as="geometry" />
        </mxCell>
        <mxCell id="U2W_PXW87W6aidbfWF0g-10" value="SNS/SQS" style="whiteSpace=wrap;strokeWidth=2;" vertex="1" parent="1">
          <mxGeometry x="1482" y="865" width="76" height="34" as="geometry" />
        </mxCell>
        <mxCell id="U2W_PXW87W6aidbfWF0g-11" value="DynamoDB - Customer Table" style="whiteSpace=wrap;strokeWidth=2;" vertex="1" parent="1">
          <mxGeometry x="75" y="865" width="217" height="34" as="geometry" />
        </mxCell>
        <mxCell id="U2W_PXW87W6aidbfWF0g-12" value="DynamoDB - Account Table" style="whiteSpace=wrap;strokeWidth=2;" vertex="1" parent="1">
          <mxGeometry x="342" y="865" width="206" height="34" as="geometry" />
        </mxCell>
        <mxCell id="U2W_PXW87W6aidbfWF0g-13" value="DynamoDB - Transaction Table" style="whiteSpace=wrap;strokeWidth=2;" vertex="1" parent="1">
          <mxGeometry x="597" y="865" width="230" height="34" as="geometry" />
        </mxCell>
        <mxCell id="U2W_PXW87W6aidbfWF0g-14" value="DynamoDB - Payment Table" style="whiteSpace=wrap;strokeWidth=2;" vertex="1" parent="1">
          <mxGeometry x="912" y="865" width="210" height="34" as="geometry" />
        </mxCell>
        <mxCell id="U2W_PXW87W6aidbfWF0g-15" value="DynamoDB - Notification Table" style="whiteSpace=wrap;strokeWidth=2;" vertex="1" parent="1">
          <mxGeometry x="1173" y="865" width="233" height="34" as="geometry" />
        </mxCell>
        <mxCell id="U2W_PXW87W6aidbfWF0g-16" value="Customer Management Service" style="whiteSpace=wrap;strokeWidth=2;" vertex="1" parent="1">
          <mxGeometry x="747" y="706" width="235" height="34" as="geometry" />
        </mxCell>
        <mxCell id="U2W_PXW87W6aidbfWF0g-17" value="Lambda Authorizer" style="whiteSpace=wrap;strokeWidth=2;" vertex="1" parent="1">
          <mxGeometry x="1417" y="455" width="151" height="34" as="geometry" />
        </mxCell>
        <mxCell id="U2W_PXW87W6aidbfWF0g-18" value="Account Management Service" style="whiteSpace=wrap;strokeWidth=2;" vertex="1" parent="1">
          <mxGeometry x="1052" y="706" width="226" height="34" as="geometry" />
        </mxCell>
        <mxCell id="U2W_PXW87W6aidbfWF0g-19" value="Transaction Management Service" style="whiteSpace=wrap;strokeWidth=2;" vertex="1" parent="1">
          <mxGeometry x="1200" y="539" width="250" height="34" as="geometry" />
        </mxCell>
        <mxCell id="U2W_PXW87W6aidbfWF0g-20" value="Payment Processing Service" style="whiteSpace=wrap;strokeWidth=2;" vertex="1" parent="1">
          <mxGeometry x="1629" y="539" width="212" height="34" as="geometry" />
        </mxCell>
        <mxCell id="U2W_PXW87W6aidbfWF0g-21" value="Notification Service" style="whiteSpace=wrap;strokeWidth=2;" vertex="1" parent="1">
          <mxGeometry x="1438" y="706" width="156" height="34" as="geometry" />
        </mxCell>
        <mxCell id="U2W_PXW87W6aidbfWF0g-22" value="CLIENT" style="whiteSpace=wrap;strokeWidth=2;verticalAlign=top;" vertex="1" parent="1">
          <mxGeometry x="1371" y="20" width="242" height="168" as="geometry" />
        </mxCell>
        <mxCell id="U2W_PXW87W6aidbfWF0g-23" value="Google/Facebook SSO" style="whiteSpace=wrap;strokeWidth=2;" vertex="1" parent="1">
          <mxGeometry x="1406" y="129" width="172" height="34" as="geometry" />
        </mxCell>
        <mxCell id="U2W_PXW87W6aidbfWF0g-24" value="React Frontend" style="whiteSpace=wrap;strokeWidth=2;" vertex="1" parent="1">
          <mxGeometry x="1430" y="45" width="125" height="34" as="geometry" />
        </mxCell>
        <mxCell id="U2W_PXW87W6aidbfWF0g-25" value="" style="curved=1;startArrow=none;endArrow=block;exitX=0.5;exitY=0.99;entryX=0.5;entryY=-0.01;rounded=0;" edge="1" parent="1" source="U2W_PXW87W6aidbfWF0g-24" target="U2W_PXW87W6aidbfWF0g-23">
          <mxGeometry relative="1" as="geometry">
            <Array as="points" />
          </mxGeometry>
        </mxCell>
        <mxCell id="U2W_PXW87W6aidbfWF0g-26" value="" style="curved=1;startArrow=none;endArrow=block;exitX=0.5;exitY=0.99;entryX=0.5;entryY=-0.01;rounded=0;" edge="1" parent="1" source="U2W_PXW87W6aidbfWF0g-23" target="U2W_PXW87W6aidbfWF0g-4">
          <mxGeometry relative="1" as="geometry">
            <Array as="points" />
          </mxGeometry>
        </mxCell>
        <mxCell id="U2W_PXW87W6aidbfWF0g-27" value="" style="curved=1;startArrow=none;endArrow=block;exitX=0.5;exitY=0.98;entryX=0.5;entryY=0.01;rounded=0;" edge="1" parent="1" source="U2W_PXW87W6aidbfWF0g-4" target="U2W_PXW87W6aidbfWF0g-5">
          <mxGeometry relative="1" as="geometry">
            <Array as="points" />
          </mxGeometry>
        </mxCell>
        <mxCell id="U2W_PXW87W6aidbfWF0g-28" value="" style="curved=1;startArrow=none;endArrow=block;exitX=0.5;exitY=1;entryX=0.5;entryY=0;rounded=0;" edge="1" parent="1" source="U2W_PXW87W6aidbfWF0g-5" target="U2W_PXW87W6aidbfWF0g-17">
          <mxGeometry relative="1" as="geometry">
            <Array as="points" />
          </mxGeometry>
        </mxCell>
        <mxCell id="U2W_PXW87W6aidbfWF0g-29" value="" style="curved=1;startArrow=none;endArrow=block;exitX=0;exitY=0.64;entryX=0.5;entryY=0.01;rounded=0;" edge="1" parent="1" source="U2W_PXW87W6aidbfWF0g-17" target="U2W_PXW87W6aidbfWF0g-16">
          <mxGeometry relative="1" as="geometry">
            <Array as="points">
              <mxPoint x="865" y="514" />
            </Array>
          </mxGeometry>
        </mxCell>
        <mxCell id="U2W_PXW87W6aidbfWF0g-30" value="" style="curved=1;startArrow=none;endArrow=block;exitX=0;exitY=0.78;entryX=0.5;entryY=0.01;rounded=0;" edge="1" parent="1" source="U2W_PXW87W6aidbfWF0g-17" target="U2W_PXW87W6aidbfWF0g-18">
          <mxGeometry relative="1" as="geometry">
            <Array as="points">
              <mxPoint x="1165" y="514" />
            </Array>
          </mxGeometry>
        </mxCell>
        <mxCell id="U2W_PXW87W6aidbfWF0g-31" value="" style="curved=1;startArrow=none;endArrow=block;exitX=0.05;exitY=0.99;entryX=0.5;entryY=-0.01;rounded=0;" edge="1" parent="1" source="U2W_PXW87W6aidbfWF0g-17" target="U2W_PXW87W6aidbfWF0g-19">
          <mxGeometry relative="1" as="geometry">
            <Array as="points">
              <mxPoint x="1326" y="514" />
            </Array>
          </mxGeometry>
        </mxCell>
        <mxCell id="U2W_PXW87W6aidbfWF0g-32" value="" style="curved=1;startArrow=none;endArrow=block;exitX=1;exitY=0.88;entryX=0.5;entryY=-0.01;rounded=0;" edge="1" parent="1" source="U2W_PXW87W6aidbfWF0g-17" target="U2W_PXW87W6aidbfWF0g-20">
          <mxGeometry relative="1" as="geometry">
            <Array as="points">
              <mxPoint x="1735" y="514" />
            </Array>
          </mxGeometry>
        </mxCell>
        <mxCell id="U2W_PXW87W6aidbfWF0g-33" value="" style="curved=1;startArrow=none;endArrow=block;exitX=0.48;exitY=0.99;entryX=0.42;entryY=0.01;rounded=0;" edge="1" parent="1" source="U2W_PXW87W6aidbfWF0g-17" target="U2W_PXW87W6aidbfWF0g-21">
          <mxGeometry relative="1" as="geometry">
            <Array as="points">
              <mxPoint x="1486" y="514" />
              <mxPoint x="1486" y="681" />
            </Array>
          </mxGeometry>
        </mxCell>
        <mxCell id="U2W_PXW87W6aidbfWF0g-34" value="" style="curved=1;startArrow=none;endArrow=block;exitX=0;exitY=0.72;entryX=0.5;entryY=0;rounded=0;" edge="1" parent="1" source="U2W_PXW87W6aidbfWF0g-16" target="U2W_PXW87W6aidbfWF0g-11">
          <mxGeometry relative="1" as="geometry">
            <Array as="points">
              <mxPoint x="183" y="765" />
            </Array>
          </mxGeometry>
        </mxCell>
        <mxCell id="U2W_PXW87W6aidbfWF0g-35" value="" style="curved=1;startArrow=none;endArrow=block;exitX=0;exitY=0.7;entryX=0.5;entryY=0;rounded=0;" edge="1" parent="1" source="U2W_PXW87W6aidbfWF0g-18" target="U2W_PXW87W6aidbfWF0g-12">
          <mxGeometry relative="1" as="geometry">
            <Array as="points">
              <mxPoint x="444" y="765" />
            </Array>
          </mxGeometry>
        </mxCell>
        <mxCell id="U2W_PXW87W6aidbfWF0g-36" value="" style="curved=1;startArrow=none;endArrow=block;exitX=0;exitY=0.74;entryX=0.5;entryY=0;rounded=0;" edge="1" parent="1" source="U2W_PXW87W6aidbfWF0g-19" target="U2W_PXW87W6aidbfWF0g-13">
          <mxGeometry relative="1" as="geometry">
            <Array as="points">
              <mxPoint x="712" y="598" />
            </Array>
          </mxGeometry>
        </mxCell>
        <mxCell id="U2W_PXW87W6aidbfWF0g-37" value="" style="curved=1;startArrow=none;endArrow=block;exitX=0;exitY=0.67;entryX=0.5;entryY=0;rounded=0;" edge="1" parent="1" source="U2W_PXW87W6aidbfWF0g-20" target="U2W_PXW87W6aidbfWF0g-14">
          <mxGeometry relative="1" as="geometry">
            <Array as="points">
              <mxPoint x="1017" y="598" />
            </Array>
          </mxGeometry>
        </mxCell>
        <mxCell id="U2W_PXW87W6aidbfWF0g-38" value="" style="curved=1;startArrow=none;endArrow=block;exitX=0;exitY=0.93;entryX=0.5;entryY=0;rounded=0;" edge="1" parent="1" source="U2W_PXW87W6aidbfWF0g-21" target="U2W_PXW87W6aidbfWF0g-15">
          <mxGeometry relative="1" as="geometry">
            <Array as="points">
              <mxPoint x="1289" y="765" />
            </Array>
          </mxGeometry>
        </mxCell>
        <mxCell id="U2W_PXW87W6aidbfWF0g-39" value="" style="curved=1;startArrow=none;endArrow=block;exitX=1;exitY=0.82;entryX=0;entryY=-0.01;rounded=0;" edge="1" parent="1" source="U2W_PXW87W6aidbfWF0g-19" target="U2W_PXW87W6aidbfWF0g-8">
          <mxGeometry relative="1" as="geometry">
            <Array as="points">
              <mxPoint x="1795" y="598" />
            </Array>
          </mxGeometry>
        </mxCell>
        <mxCell id="U2W_PXW87W6aidbfWF0g-40" value="" style="curved=1;startArrow=none;endArrow=block;exitX=0.65;exitY=0.99;entryX=0;entryY=0.2;rounded=0;" edge="1" parent="1" source="U2W_PXW87W6aidbfWF0g-20" target="U2W_PXW87W6aidbfWF0g-9">
          <mxGeometry relative="1" as="geometry">
            <Array as="points">
              <mxPoint x="1815" y="598" />
            </Array>
          </mxGeometry>
        </mxCell>
        <mxCell id="U2W_PXW87W6aidbfWF0g-41" value="" style="curved=1;startArrow=none;endArrow=block;exitX=0;exitY=0.68;entryX=0.47;entryY=0.01;rounded=0;" edge="1" parent="1" source="U2W_PXW87W6aidbfWF0g-8" target="U2W_PXW87W6aidbfWF0g-21">
          <mxGeometry relative="1" as="geometry">
            <Array as="points">
              <mxPoint x="1506" y="681" />
            </Array>
          </mxGeometry>
        </mxCell>
        <mxCell id="U2W_PXW87W6aidbfWF0g-42" value="" style="curved=1;startArrow=none;endArrow=block;exitX=0;exitY=0.68;entryX=0.84;entryY=0.01;rounded=0;" edge="1" parent="1" source="U2W_PXW87W6aidbfWF0g-9" target="U2W_PXW87W6aidbfWF0g-21">
          <mxGeometry relative="1" as="geometry">
            <Array as="points">
              <mxPoint x="1648" y="681" />
            </Array>
          </mxGeometry>
        </mxCell>
        <mxCell id="U2W_PXW87W6aidbfWF0g-43" value="" style="curved=1;startArrow=none;endArrow=block;exitX=0.51;exitY=1;entryX=0.5;entryY=0;rounded=0;" edge="1" parent="1" source="U2W_PXW87W6aidbfWF0g-21" target="U2W_PXW87W6aidbfWF0g-10">
          <mxGeometry relative="1" as="geometry">
            <Array as="points">
              <mxPoint x="1520" y="765" />
            </Array>
          </mxGeometry>
        </mxCell>
        <mxCell id="U2W_PXW87W6aidbfWF0g-44" value="" style="curved=1;startArrow=none;endArrow=block;exitX=1;exitY=0.72;entryX=0;entryY=0.43;rounded=0;" edge="1" parent="1" source="U2W_PXW87W6aidbfWF0g-16" target="U2W_PXW87W6aidbfWF0g-2">
          <mxGeometry relative="1" as="geometry">
            <Array as="points">
              <mxPoint x="1540" y="765" />
              <mxPoint x="1540" y="840" />
            </Array>
          </mxGeometry>
        </mxCell>
        <mxCell id="U2W_PXW87W6aidbfWF0g-45" value="" style="curved=1;startArrow=none;endArrow=block;exitX=1;exitY=0.86;entryX=0;entryY=0.43;rounded=0;" edge="1" parent="1" source="U2W_PXW87W6aidbfWF0g-18" target="U2W_PXW87W6aidbfWF0g-2">
          <mxGeometry relative="1" as="geometry">
            <Array as="points">
              <mxPoint x="1560" y="765" />
              <mxPoint x="1560" y="840" />
            </Array>
          </mxGeometry>
        </mxCell>
        <mxCell id="U2W_PXW87W6aidbfWF0g-46" value="" style="curved=1;startArrow=none;endArrow=block;exitX=1;exitY=0.89;entryX=0;entryY=0.41;rounded=0;" edge="1" parent="1" source="U2W_PXW87W6aidbfWF0g-19" target="U2W_PXW87W6aidbfWF0g-2">
          <mxGeometry relative="1" as="geometry">
            <Array as="points">
              <mxPoint x="1715" y="598" />
              <mxPoint x="1715" y="840" />
            </Array>
          </mxGeometry>
        </mxCell>
        <mxCell id="U2W_PXW87W6aidbfWF0g-47" value="" style="curved=1;startArrow=none;endArrow=block;exitX=0.5;exitY=0.99;entryX=0;entryY=0.41;rounded=0;" edge="1" parent="1" source="U2W_PXW87W6aidbfWF0g-20" target="U2W_PXW87W6aidbfWF0g-2">
          <mxGeometry relative="1" as="geometry">
            <Array as="points">
              <mxPoint x="1735" y="840" />
            </Array>
          </mxGeometry>
        </mxCell>
        <mxCell id="U2W_PXW87W6aidbfWF0g-48" value="" style="curved=1;startArrow=none;endArrow=block;exitX=1;exitY=0.84;entryX=0;entryY=0.4;rounded=0;" edge="1" parent="1" source="U2W_PXW87W6aidbfWF0g-21" target="U2W_PXW87W6aidbfWF0g-2">
          <mxGeometry relative="1" as="geometry">
            <Array as="points">
              <mxPoint x="1805" y="765" />
              <mxPoint x="1805" y="840" />
            </Array>
          </mxGeometry>
        </mxCell>
      </root>
    </mxGraphModel>
  </diagram>
</mxfile>
